# xmcd
#
# Track frame offsets:
# 150
# 16122
# 41700
# 68400
# 103127
# 123300
# 147975
# 170707
# 185785
# 202235
# 219610
# 245557
# 268057
# 308885
#
# Disc length: 4435 seconds
#
#
# Revision: 0
# Processed by: cddbd v1.5.1PL0 Copyright (c) Steve Scherf et al.
# Submitted via: FreeRIP 2.942 
#
DISCID=da11510e
DTITLE=Blues Company - So What?
DYEAR=1987
DGENRE=Blues
TTITLE0=What´s Wrong?
TTITLE1=Cold Blue Moon
TTITLE2=Stay With Me
TTITLE3=Downhome Blues
TTITLE4=Mean Woman Blues
TTITLE5=Rattlesnake Blues
TTITLE6=Pension Blues
TTITLE7=Look Here Baby
TTITLE8=Good Times blues
TTITLE9=Teeny Weeny Boogie
TTITLE10=Drinkin´ Blues
TTITLE11=Mr .TNT
TTITLE12=Black Nite
TTITLE13=So What???
EXTD=
EXTT0=
EXTT1=
EXTT2=
EXTT3=
EXTT4=
EXTT5=
EXTT6=
EXTT7=
EXTT8=
EXTT9=
EXTT10=
EXTT11=
EXTT12=
EXTT13=
PLAYORDER=
